<?xml version='1.0' standalone='no'?>
<svg id="linked_list_svg" width="100%" height="450" xmlns="http://www.w3.org/2000/svg" xmlns:xlink="http://www.w3.org/1999/xlink">
            <defs>
              <marker id="arrow_link" markerWidth="12" markerHeight="12" refX="0" refY="3" orient="auto" markerUnits="strokeWidth">
                <path d="M0,0 L0,6 L6,3 z" id="markers" fill="black"/>
              </marker>
            </defs>
            <g>
              <rect x="10" y="50" width="40px" height="30" fill="white" stroke-width="1px" stroke="black" id="root_pointer"/> 
              <text x="10" y="40" stroke-width="0.5" fill="black" font-size="17px"> root_ptr</text>
            </g>
          <rect x="425" y="191" height="40" width="80" id="rect0" stroke="black" stroke-width="1px" fill="none"/><line x1="489" y1="191" x2="489" y2="231" id="divide_line0" stroke="black" stroke-width="1px"/><text x="451.6666666666667" y="211" id="linked_data0" font-family="Verdana" stroke="none" font-size="20px" dy=".3em" text-anchor="middle" stroke-width="0.8px">52</text><line x1="20" y1="65" x2="216" y2="131" id="root_connected" stroke="black" stroke-width="1"/><polyline points="491.6666666666667,211,489.6666666666667,211,491.6666666666667,211" id="next_node_position0" stroke="black" stroke-width="1px" marker-end="url(#arrow_link)" fill="none"/><rect x="281" y="191" height="40" width="80" id="rect1" stroke="black" stroke-width="1px" fill="none"/><line x1="345" y1="191" x2="345" y2="231" id="divide_line1" stroke="black" stroke-width="1px"/><text x="307.6666666666667" y="211" id="linked_data1" font-family="Verdana" stroke="none" font-size="20px" dy=".3em" text-anchor="middle" stroke-width="0.8px">72</text><polyline points="351,211,417,211,418,211" id="next_node_position1" stroke="black" stroke-width="1px" marker-end="url(#arrow_link)" fill="none"/><rect x="137" y="191" height="40" width="80" id="rect2" stroke="black" stroke-width="1px" fill="none"/><line x1="201" y1="191" x2="201" y2="231" id="divide_line2" stroke="black" stroke-width="1px"/><text x="163.66666666666669" y="211" id="linked_data2" font-family="Verdana" stroke="none" font-size="20px" dy=".3em" text-anchor="middle" stroke-width="0.8px">16</text><polyline points="207,211,273,211,274,211" id="next_node_position2" stroke="black" stroke-width="1px" marker-end="url(#arrow_link)" fill="none"/><rect x="936" y="111" height="40" width="80" id="rect3" stroke="black" stroke-width="1px" fill="none"/><line x1="1000" y1="111" x2="1000" y2="151" id="divide_line3" stroke="black" stroke-width="1px"/><text x="962.6666666666667" y="131" id="linked_data3" font-family="Verdana" stroke="none" font-size="20px" dy=".3em" text-anchor="middle" stroke-width="0.8px">54</text><polyline points="1006,131,1056,131,1056,171,123,171,123,211,127,211" id="next_node_position3" stroke="black" stroke-width="1px" marker-end="url(#arrow_link)" fill="none"/><rect x="648" y="111" height="40" width="80" id="rect5" stroke="black" stroke-width="1px" fill="none"/><line x1="712" y1="111" x2="712" y2="151" id="divide_line5" stroke="black" stroke-width="1px"/><text x="674.6666666666667" y="131" id="linked_data5" font-family="Verdana" stroke="none" font-size="20px" dy=".3em" text-anchor="middle" stroke-width="0.8px">6</text><polyline points="718,131,930,131,931,131" id="next_node_position5" stroke="black" stroke-width="1px" marker-end="url(#arrow_link)" fill="none"/><rect x="504" y="111" height="40" width="80" id="rect6" stroke="black" stroke-width="1px" fill="none"/><line x1="568" y1="111" x2="568" y2="151" id="divide_line6" stroke="black" stroke-width="1px"/><text x="530.6666666666667" y="131" id="linked_data6" font-family="Verdana" stroke="none" font-size="20px" dy=".3em" text-anchor="middle" stroke-width="0.8px">72</text><polyline points="574,131,640,131,641,131" id="next_node_position6" stroke="black" stroke-width="1px" marker-end="url(#arrow_link)" fill="none"/><rect x="360" y="111" height="40" width="80" id="rect7" stroke="black" stroke-width="1px" fill="none"/><line x1="424" y1="111" x2="424" y2="151" id="divide_line7" stroke="black" stroke-width="1px"/><text x="386.6666666666667" y="131" id="linked_data7" font-family="Verdana" stroke="none" font-size="20px" dy=".3em" text-anchor="middle" stroke-width="0.8px">63</text><polyline points="430,131,496,131,497,131" id="next_node_position7" stroke="black" stroke-width="1px" marker-end="url(#arrow_link)" fill="none"/><rect x="216" y="111" height="40" width="80" id="rect8" stroke="black" stroke-width="1px" fill="none"/><line x1="280" y1="111" x2="280" y2="151" id="divide_line8" stroke="black" stroke-width="1px"/><text x="242.66666666666669" y="131" id="linked_data8" font-family="Verdana" stroke="none" font-size="20px" dy=".3em" text-anchor="middle" stroke-width="0.8px">9</text><polyline points="286,131,352,131,353,131" id="next_node_position8" stroke="black" stroke-width="1px" marker-end="url(#arrow_link)" fill="none"/></svg>